<svg xmlns="http://www.w3.org/2000/svg" viewBox="0 0 1600 900" preserveAspectRatio="xMidYMid slice" role="img" aria-label="Illustration d'un vignoble au soleil couchant">
  <defs>
    <linearGradient id="sky" x1="0" y1="0" x2="0" y2="1">
      <stop offset="0%" stop-color="#f4ead4"/>
      <stop offset="42%" stop-color="#eccf9f"/>
      <stop offset="72%" stop-color="#dcab6c"/>
      <stop offset="100%" stop-color="#cf9856"/>
    </linearGradient>
    <radialGradient id="sun" cx="55%" cy="52%" r="38%">
      <stop offset="0%" stop-color="#fff4dc"/>
      <stop offset="35%" stop-color="#ffe4b0" stop-opacity="0.9"/>
      <stop offset="100%" stop-color="#ffe4b0" stop-opacity="0"/>
    </radialGradient>
    <linearGradient id="h1" x1="0" y1="0" x2="0" y2="1">
      <stop offset="0%" stop-color="#c69a63"/><stop offset="100%" stop-color="#b07f49"/>
    </linearGradient>
    <linearGradient id="h2" x1="0" y1="0" x2="0" y2="1">
      <stop offset="0%" stop-color="#9d6f40"/><stop offset="100%" stop-color="#855a32"/>
    </linearGradient>
    <linearGradient id="h3" x1="0" y1="0" x2="0" y2="1">
      <stop offset="0%" stop-color="#6f4528"/><stop offset="100%" stop-color="#583620"/>
    </linearGradient>
    <linearGradient id="hf" x1="0" y1="0" x2="0" y2="1">
      <stop offset="0%" stop-color="#5a3621"/><stop offset="100%" stop-color="#43271a"/>
    </linearGradient>
    <clipPath id="frontHill">
      <path d="M0,640 C 360,560 720,600 1010,560 C 1280,524 1460,560 1600,548 L1600,900 L0,900 Z"/>
    </clipPath>
  </defs>

  <!-- Ciel + soleil -->
  <rect width="1600" height="900" fill="url(#sky)"/>
  <rect width="1600" height="900" fill="url(#sun)"/>
  <circle cx="880" cy="455" r="78" fill="#fff6e3"/>

  <!-- Collines successives -->
  <path d="M0,470 C 300,432 560,452 820,440 C 1080,428 1360,452 1600,438 L1600,560 L0,560 Z" fill="url(#h1)" opacity="0.9"/>
  <path d="M0,520 C 280,486 600,512 900,496 C 1180,482 1420,512 1600,500 L1600,640 L0,640 Z" fill="url(#h2)" opacity="0.95"/>
  <path d="M0,575 C 320,536 700,566 1010,548 C 1280,532 1470,560 1600,552 L1600,720 L0,720 Z" fill="url(#h3)"/>

  <!-- Colline de premier plan + rangs de vigne -->
  <path d="M0,640 C 360,560 720,600 1010,560 C 1280,524 1460,560 1600,548 L1600,900 L0,900 Z" fill="url(#hf)"/>
  <g clip-path="url(#frontHill)">
    <g stroke="#3a2114" stroke-width="3" opacity="0.45" stroke-linecap="round">
      <line x1="880" y1="470" x2="-620" y2="900" />
      <line x1="880" y1="470" x2="-470" y2="900" />
      <line x1="880" y1="470" x2="-320" y2="900" />
      <line x1="880" y1="470" x2="-170" y2="900" />
      <line x1="880" y1="470" x2="-20" y2="900" />
      <line x1="880" y1="470" x2="130" y2="900" />
      <line x1="880" y1="470" x2="280" y2="900" />
      <line x1="880" y1="470" x2="430" y2="900" />
      <line x1="880" y1="470" x2="580" y2="900" />
      <line x1="880" y1="470" x2="730" y2="900" />
      <line x1="880" y1="470" x2="880" y2="900" />
      <line x1="880" y1="470" x2="1030" y2="900" />
      <line x1="880" y1="470" x2="1180" y2="900" />
      <line x1="880" y1="470" x2="1330" y2="900" />
      <line x1="880" y1="470" x2="1480" y2="900" />
      <line x1="880" y1="470" x2="1630" y2="900" />
      <line x1="880" y1="470" x2="1780" y2="900" />
      <line x1="880" y1="470" x2="1930" y2="900" />
      <line x1="880" y1="470" x2="2080" y2="900" />
      <line x1="880" y1="470" x2="2230" y2="900" />
      <line x1="880" y1="470" x2="2380" y2="900" />
    </g>
    <g stroke="#2c1810" stroke-width="3" opacity="0.5" stroke-linecap="round">
      <line x1="655" y1="568" x2="655" y2="578" />
      <line x1="493" y1="642" x2="493" y2="655" />
      <line x1="331" y1="717" x2="331" y2="732" />
      <line x1="169" y1="791" x2="169" y2="810" />
      <line x1="7" y1="866" x2="7" y2="887" />
      <line x1="730" y1="568" x2="730" y2="578" />
      <line x1="622" y1="642" x2="622" y2="655" />
      <line x1="514" y1="717" x2="514" y2="732" />
      <line x1="406" y1="791" x2="406" y2="810" />
      <line x1="298" y1="866" x2="298" y2="887" />
      <line x1="805" y1="568" x2="805" y2="578" />
      <line x1="751" y1="642" x2="751" y2="655" />
      <line x1="697" y1="717" x2="697" y2="732" />
      <line x1="643" y1="791" x2="643" y2="810" />
      <line x1="589" y1="866" x2="589" y2="887" />
      <line x1="880" y1="568" x2="880" y2="578" />
      <line x1="880" y1="642" x2="880" y2="655" />
      <line x1="880" y1="717" x2="880" y2="732" />
      <line x1="880" y1="791" x2="880" y2="810" />
      <line x1="880" y1="866" x2="880" y2="887" />
      <line x1="955" y1="568" x2="955" y2="578" />
      <line x1="1009" y1="642" x2="1009" y2="655" />
      <line x1="1063" y1="717" x2="1063" y2="732" />
      <line x1="1117" y1="791" x2="1117" y2="810" />
      <line x1="1171" y1="866" x2="1171" y2="887" />
      <line x1="1030" y1="568" x2="1030" y2="578" />
      <line x1="1138" y1="642" x2="1138" y2="655" />
      <line x1="1246" y1="717" x2="1246" y2="732" />
      <line x1="1354" y1="791" x2="1354" y2="810" />
      <line x1="1462" y1="866" x2="1462" y2="887" />
      <line x1="1105" y1="568" x2="1105" y2="578" />
      <line x1="1267" y1="642" x2="1267" y2="655" />
      <line x1="1429" y1="717" x2="1429" y2="732" />
      <line x1="1591" y1="791" x2="1591" y2="810" />
      <line x1="1753" y1="866" x2="1753" y2="887" />
    </g>
  </g>

  <!-- Voile atmosphérique léger -->
  <rect width="1600" height="900" fill="#160d09" opacity="0.04"/>
</svg>
